<svg version="1.1" xmlns="http://www.w3.org/2000/svg" x="0px" y="0px"
     viewBox="0 0 267.488 301.485"
     xml:space="preserve">
<path fill-rule="evenodd" clip-rule="evenodd" d="M213.394,283.697H53.191c-19.354,0-35.043-15.331-35.043-34.247
	V102.673c0-18.916,15.688-34.248,35.043-34.248h160.202c19.355,0,35.043,15.332,35.043,34.248V249.45
	C248.437,268.366,232.749,283.697,213.394,283.697z M228.413,153.533h-5.007H118.274h-10.013c-5.529,0-10.012-4.479-10.012-10.012
	c0-5.53,4.483-10.014,10.012-10.014h10.013h105.132h5.007v-25.588c0-10.751-8.736-19.468-19.513-19.468H57.685
	c-10.776,0-19.513,8.717-19.513,19.468v90.67h5.007h105.132h10.014c5.528,0,10.012,4.483,10.012,10.013
	c0,5.535-4.484,10.014-10.012,10.014h-10.014H43.179h-5.007v25.588c0,10.751,8.737,19.468,19.513,19.468H208.9
	c10.776,0,19.513-8.717,19.513-19.468V153.533z M165.838,57.832c-1.184,0.392-2.39,0.572-3.574,0.572
	c-4.62,0-8.928-2.806-10.497-7.279c-3.427-9.739-12.844-17.743-23.482-17.743c-10.589,0-20.044,7.964-23.496,17.649
	c-1.995,5.603-8.302,8.595-14.1,6.649c-5.789-1.931-8.863-8.037-6.869-13.65c6.531-18.343,24.392-30.664,44.441-30.664
	c20.137,0,38.021,12.394,44.504,30.839C174.737,49.823,171.637,55.92,165.838,57.832z"/>
</svg>